<svg width="24" height="24" viewBox="0 0 24 24" fill="none" xmlns="http://www.w3.org/2000/svg">

		<g id='camera'>
			<g id="SVGRepo_bgCarrier" strokeWidth="0"></g><g id="SVGRepo_tracerCarrier" ></g><g id="SVGRepo_iconCarrier"> <path d="M11.9426 1.25H12.0574C14.3658 1.24999 16.1748 1.24998 17.5863 1.43975C19.031 1.63399 20.1711 2.03933 21.0659 2.93414C21.9607 3.82895 22.366 4.96897 22.5603 6.41371C22.75 7.82519 22.75 9.63423 22.75 11.9426V12.0574C22.75 14.3658 22.75 16.1748 22.5603 17.5863C22.366 19.031 21.9607 20.1711 21.0659 21.0659C20.1711 21.9607 19.031 22.366 17.5863 22.5603C16.1748 22.75 14.3658 22.75 12.0574 22.75H11.9426C9.63423 22.75 7.82519 22.75 6.41371 22.5603C4.96897 22.366 3.82895 21.9607 2.93414 21.0659C2.03933 20.1711 1.63399 19.031 1.43975 17.5863C1.24998 16.1748 1.24999 14.3658 1.25 12.0574V11.9426C1.24999 9.63423 1.24998 7.82519 1.43975 6.41371C1.63399 4.96897 2.03933 3.82895 2.93414 2.93414C3.82895 2.03933 4.96897 1.63399 6.41371 1.43975C7.82519 1.24998 9.63423 1.24999 11.9426 1.25ZM6.61358 2.92637C5.33517 3.09825 4.56445 3.42514 3.9948 3.9948C3.42514 4.56445 3.09825 5.33517 2.92637 6.61358C2.75159 7.91356 2.75 9.62178 2.75 12C2.75 14.3782 2.75159 16.0864 2.92637 17.3864C3.09825 18.6648 3.42514 19.4355 3.9948 20.0052C4.56445 20.5749 5.33517 20.9018 6.61358 21.0736C7.91356 21.2484 9.62178 21.25 12 21.25C14.3782 21.25 16.0864 21.2484 17.3864 21.0736C18.6648 20.9018 19.4355 20.5749 20.0052 20.0052C20.5749 19.4355 20.9018 18.6648 21.0736 17.3864C21.2484 16.0864 21.25 14.3782 21.25 12C21.25 9.62178 21.2484 7.91356 21.0736 6.61358C20.9018 5.33517 20.5749 4.56445 20.0052 3.9948C19.4355 3.42514 18.6648 3.09825 17.3864 2.92637C16.0864 2.75159 14.3782 2.75 12 2.75C9.62178 2.75 7.91356 2.75159 6.61358 2.92637ZM12 8.75C10.2051 8.75 8.75 10.2051 8.75 12C8.75 13.7949 10.2051 15.25 12 15.25C13.7949 15.25 15.25 13.7949 15.25 12C15.25 10.2051 13.7949 8.75 12 8.75ZM7.25 12C7.25 9.37665 9.37665 7.25 12 7.25C14.6234 7.25 16.75 9.37665 16.75 12C16.75 14.6234 14.6234 16.75 12 16.75C9.37665 16.75 7.25 14.6234 7.25 12Z" fill="#2f2e2e" ></path> </g>
		</g>
		
		<g id='music'>
		<g id="SVGRepo_bgCarrier" strokeWidth="0"></g><g id="SVGRepo_tracerCarrier"></g><g id="SVGRepo_iconCarrier"> <path d="M9 19C9 20.6569 7.65685 22 6 22C4.34315 22 3 20.6569 3 19C3 17.3431 4.34315 16 6 16C7.65685 16 9 17.3431 9 19Z" stroke="currentColor" strokeWidth="1.5"></path> <path d="M21 17C21 18.6569 19.6569 20 18 20C16.3431 20 15 18.6569 15 17C15 15.3431 16.3431 14 18 14C19.6569 14 21 15.3431 21 17Z" stroke="currentColor" strokeWidth="1.5"></path> <path d="M9 19V8" stroke="currentColor" strokeWidth="1.5"></path> <path d="M20.25 11.5C20.25 11.9142 20.5858 12.25 21 12.25C21.4142 12.25 21.75 11.9142 21.75 11.5H20.25ZM21.75 11.5V6H20.25V11.5H21.75Z" fill="#1C274C"></path> <path d="M15.7351 3.75466L11.7351 5.08799C10.4151 5.52801 9.75503 5.74801 9.37752 6.27179C9 6.79556 9 7.49128 9 8.88273V11.9997L21 7.99969V7.54939C21 5.01693 21 3.7507 20.1694 3.15206C19.3388 2.55341 18.1376 2.95383 15.7351 3.75466Z" stroke="currentColor" strokeWidth="1.5" ></path> </g>
		</g>

		<g id='music2'>
			<g id="SVGRepo_bgCarrier" strokeWidth="0"></g><g id="SVGRepo_tracerCarrier" ></g><g id="SVGRepo_iconCarrier"> <path d="M9 19C9 20.6569 7.65685 22 6 22C4.34315 22 3 20.6569 3 19C3 17.3431 4.34315 16 6 16C7.65685 16 9 17.3431 9 19Z" stroke="#1C274C" strokeWidth="1.5"></path> <path d="M21 17C21 18.6569 19.6569 20 18 20C16.3431 20 15 18.6569 15 17C15 15.3431 16.3431 14 18 14C19.6569 14 21 15.3431 21 17Z" stroke="#2f2e2e" strokeWidth="1.5"></path> <path d="M9 19V8" stroke="#1C274C" strokeWidth="1.5"></path> <path d="M20.25 11.5C20.25 11.9142 20.5858 12.25 21 12.25C21.4142 12.25 21.75 11.9142 21.75 11.5H20.25ZM21.75 11.5V6H20.25V11.5H21.75Z" fill="#1C274C"></path> <path d="M15.7351 3.75466L11.7351 5.08799C10.4151 5.52801 9.75503 5.74801 9.37752 6.27179C9 6.79556 9 7.49128 9 8.88273V11.9997L21 7.99969V7.54939C21 5.01693 21 3.7507 20.1694 3.15206C19.3388 2.55341 18.1376 2.95383 15.7351 3.75466Z" stroke="#1C274C" strokeWidth="1.5" ></path> </g></g>

		<g id='play'>
			<g id="SVGRepo_bgCarrier" strokeWidth="0"></g><g id="SVGRepo_tracerCarrier" ></g><g id="SVGRepo_iconCarrier"> <path d="M20.4086 9.35258C22.5305 10.5065 22.5305 13.4935 20.4086 14.6474L7.59662 21.6145C5.53435 22.736 3 21.2763 3 18.9671L3 5.0329C3 2.72368 5.53435 1.26402 7.59661 2.38548L20.4086 9.35258Z" stroke="currentColor" strokeWidth="2"></path> </g>
			</g>

			<g id='smile'>
			<g id="SVGRepo_bgCarrier" strokeWidth="0"></g><g id="SVGRepo_tracerCarrier" ></g><g id="SVGRepo_iconCarrier"> <circle cx="12" cy="12" r="10" stroke="currentColor" strokeWidth="1.5"></circle> <path d="M9 16C9.85038 16.6303 10.8846 17 12 17C13.1154 17 14.1496 16.6303 15 16" stroke="currentColor" strokeWidth="1.5" ></path> <path d="M16 10.5C16 11.3284 15.5523 12 15 12C14.4477 12 14 11.3284 14 10.5C14 9.67157 14.4477 9 15 9C15.5523 9 16 9.67157 16 10.5Z" fill="#1C274C"></path> <ellipse cx="9" cy="10.5" rx="1" ry="1.5" fill="#2f2e2e"></ellipse> </g>
			</g>

			<g id='filter'>
				<g id="SVGRepo_bgCarrier" strokeWidth="0"></g><g id="SVGRepo_tracerCarrier" ></g><g id="SVGRepo_iconCarrier"> <path d="M14 5C14 3.89543 13.1046 3 12 3C10.8954 3 10 3.89543 10 5M14 5C14 6.10457 13.1046 7 12 7C10.8954 7 10 6.10457 10 5M14 5H20M10 5L4 5M16 12C16 13.1046 16.8954 14 18 14C19.1046 14 20 13.1046 20 12C20 10.8954 19.1046 10 18 10C16.8954 10 16 10.8954 16 12ZM16 12H4M8 19C8 17.8954 7.10457 17 6 17C4.89543 17 4 17.8954 4 19C4 20.1046 4.89543 21 6 21C7.10457 21 8 20.1046 8 19ZM8 19H20" stroke="currentColor" strokeWidth="1.5" ></path> </g>
			</g>

			<g id='topic'>
			<path d="M20.1,40.3 C18.7,39.9 17.3,39.4 16,38.8 C7.5,35.2 1.9,28.8 1.9,21.5 C1.9,10.2 15.6,1 32.4,1 C49.2,1 62.9,10.2 62.9,21.5 C62.9,32.8 49.2,42 32.4,42 C31.6,42 30.7,42 29.9,41.9 L29.9,41.9 L10,51 L16,38.9" id="Chat-bubble" stroke="#8c30e2" strokeWidth="2"></path>
			</g>

			<g id='search'>
						<path d="M51.6,96.7c11,0,21-3.9,28.8-10.5l35,35c0.8,0.8,1.8,1.2,2.9,1.2s2.1-0.4,2.9-1.2c1.6-1.6,1.6-4.2,0-5.8l-35-35   c6.5-7.8,10.5-17.9,10.5-28.8c0-24.9-20.2-45.1-45.1-45.1C26.8,6.5,6.5,26.8,6.5,51.6C6.5,76.5,26.8,96.7,51.6,96.7z M51.6,14.7   c20.4,0,36.9,16.6,36.9,36.9C88.5,72,72,88.5,51.6,88.5c-20.4,0-36.9-16.6-36.9-36.9C14.7,31.3,31.3,14.7,51.6,14.7z" />
				</g>

	<!-- navbar -->
				<g id='profile'>
					<g id="SVGRepo_bgCarrier" strokeWidth="0"></g><g id="SVGRepo_tracerCarrier"  ></g><g id="SVGRepo_iconCarrier"> <path d="M14.9999 15.2547C13.8661 14.4638 12.4872 14 10.9999 14C7.40399 14 4.44136 16.7114 4.04498 20.2013C4.01693 20.4483 4.0029 20.5718 4.05221 20.6911C4.09256 20.7886 4.1799 20.8864 4.2723 20.9375C4.38522 21 4.52346 21 4.79992 21H9.94465M13.9999 19.2857L15.7999 21L19.9999 17M14.9999 7C14.9999 9.20914 13.2091 11 10.9999 11C8.79078 11 6.99992 9.20914 6.99992 7C6.99992 4.79086 8.79078 3 10.9999 3C13.2091 3 14.9999 4.79086 14.9999 7Z"  strokeWidth="2" ></path> </g>
				</g>

				<g id='chat'>
					<path d="M17.98 10.79V14.79C17.98 15.05 17.97 15.3 17.94 15.54C17.71 18.24 16.12 19.58 13.19 19.58H12.79C12.54 19.58 12.3 19.7 12.15 19.9L10.95 21.5C10.42 22.21 9.56 22.21 9.03 21.5L7.82999 19.9C7.69999 19.73 7.41 19.58 7.19 19.58H6.79001C3.60001 19.58 2 18.79 2 14.79V10.79C2 7.86001 3.35001 6.27001 6.04001 6.04001C6.28001 6.01001 6.53001 6 6.79001 6H13.19C16.38 6 17.98 7.60001 17.98 10.79Z" stroke-width="1.5" stroke-miterlimit="10" stroke-linecap="round" stroke-linejoin="round"/>
					<path d="M21.98 6.79001V10.79C21.98 13.73 20.63 15.31 17.94 15.54C17.97 15.3 17.98 15.05 17.98 14.79V10.79C17.98 7.60001 16.38 6 13.19 6H6.79004C6.53004 6 6.28004 6.01001 6.04004 6.04001C6.27004 3.35001 7.86004 2 10.79 2H17.19C20.38 2 21.98 3.60001 21.98 6.79001Z" stroke-width="1.5" stroke-miterlimit="10" stroke-linecap="round" stroke-linejoin="round"/>
					<path d="M13.4955 13.25H13.5045" stroke-width="1.5" stroke-linecap="round" stroke-linejoin="round"/>
					<path d="M9.9955 13.25H10.0045" stroke-width="1.5" stroke-linecap="round" stroke-linejoin="round"/>
					<path d="M6.4955 13.25H6.5045" stroke-width="1.5" stroke-linecap="round" stroke-linejoin="round"/>
				</g>

				<g id='users'>
					<g id="SVGRepo_bgCarrier" strokeWidth="0"></g><g id="SVGRepo_tracerCarrier"  ></g><g id="SVGRepo_iconCarrier"> <path d="M18 7.16C17.94 7.15 17.87 7.15 17.81 7.16C16.43 7.11 15.33 5.98 15.33 4.58C15.33 3.15 16.48 2 17.91 2C19.34 2 20.49 3.16 20.49 4.58C20.48 5.98 19.38 7.11 18 7.16Z" strokeWidth="1.5"  ></path> <path d="M16.9699 14.44C18.3399 14.67 19.8499 14.43 20.9099 13.72C22.3199 12.78 22.3199 11.24 20.9099 10.3C19.8399 9.59004 18.3099 9.35003 16.9399 9.59003"  strokeWidth="1.5"  ></path> <path d="M5.96998 7.16C6.02998 7.15 6.09998 7.15 6.15998 7.16C7.53998 7.11 8.63998 5.98 8.63998 4.58C8.63998 3.15 7.48998 2 6.05998 2C4.62998 2 3.47998 3.16 3.47998 4.58C3.48998 5.98 4.58998 7.11 5.96998 7.16Z"  strokeWidth="1.5"  ></path> <path d="M6.99994 14.44C5.62994 14.67 4.11994 14.43 3.05994 13.72C1.64994 12.78 1.64994 11.24 3.05994 10.3C4.12994 9.59004 5.65994 9.35003 7.02994 9.59003" strokeWidth="1.5"  ></path> <path d="M12 14.63C11.94 14.62 11.87 14.62 11.81 14.63C10.43 14.58 9.32996 13.45 9.32996 12.05C9.32996 10.62 10.48 9.46997 11.91 9.46997C13.34 9.46997 14.49 10.63 14.49 12.05C14.48 13.45 13.38 14.59 12 14.63Z" strokeWidth="1.5"  ></path> <path d="M9.08997 17.78C7.67997 18.72 7.67997 20.26 9.08997 21.2C10.69 22.27 13.31 22.27 14.91 21.2C16.32 20.26 16.32 18.72 14.91 17.78C13.32 16.72 10.69 16.72 9.08997 17.78Z" strokeWidth="1.5"  ></path> </g>
				</g>

			<g id='gallery'>
				<g id="SVGRepo_bgCarrier" stroke-width="0"></g>
				<g id="SVGRepo_tracerCarrier" stroke-linecap="round" stroke-linejoin="round"></g>
				<g id="SVGRepo_iconCarrier">
					<title>ionicons-v5-e</title>
					<path d="M432,112V96a48.14,48.14,0,0,0-48-48H64A48.14,48.14,0,0,0,16,96V352a48.14,48.14,0,0,0,48,48H80" fill="none" stroke-linejoin="round" stroke-width="32px"></path>
					<rect x="96" y="128" width="400" height="336" rx="45.99" ry="45.99" fill="none"  stroke-linejoin="round" stroke-width="32px"></rect>
					<ellipse cx="372.92" cy="219.64" rx="30.77" ry="30.55" fill="none"  stroke-miterlimit="10" stroke-width="32px"></ellipse>
					<path d="M342.15,372.17,255,285.78a30.93,30.93,0,0,0-42.18-1.21L96,387.64" fill="none" stroke-linecap="round" stroke-linejoin="round" stroke-width="32px"></path>
					<path d="M265.23,464,383.82,346.27a31,31,0,0,1,41.46-1.87L496,402.91" fill="none" stroke-linecap="round" stroke-linejoin="round" stroke-width="32px"></path>
				</g>
			</g>

			<g id='newsfeed'>
				<g id="SVGRepo_bgCarrier" strokeWidth="0"></g><g id="SVGRepo_tracerCarrier"  ></g><g id="SVGRepo_iconCarrier"> <desc></desc> <g> <path d="M25,3V1H3v28 c0,1.105,0.895,2,2,2h22c1.105,0,2-0.895,2-2V3H25z" fill="none"   strokeWidth="2"></path> <rect fill="none" height="6"   strokeWidth="2" width="14" x="7" y="5"></rect> <line fill="none"   strokeWidth="2" x1="25" x2="25" y1="3" y2="24"></line> <line fill="none"   strokeWidth="2" x1="25" x2="25" y1="26" y2="28"></line> <line fill="none"    strokeWidth="2" x1="6" x2="22" y1="15" y2="15"></line> <line fill="none"   strokeWidth="2" x1="6" x2="22" y1="19" y2="19"></line> <line fill="none"   strokeWidth="2" x1="6" x2="18" y1="23" y2="23"></line> </g> </g>
			</g>
			
			<g id='cart'>
				<path d="M6 6 L30 6 27 19 9 19 M27 23 L10 23 5 2 2 2"></path>
								<circle cx="25" cy="27" r="2"></circle>
								<circle cx="12" cy="27" r="2"></circle>
			</g>

		<path id="laptop" fill-rule="evenodd" clip-rule="evenodd" d="M40 13V27C40 27.5523 39.5523 28 39 28C38.4477 28 38 27.5523 38 27V13C38 12.4474 37.5529 12 37 12H11C10.4471 12 10 12.4474 10 13V30H20.0624H28.0624H34V15.9842H14V26.9122C14 27.4645 13.5523 27.9122 13 27.9122C12.4477 27.9122 12 27.4645 12 26.9122V15.3842C12 14.6098 12.6278 13.9842 13.4 13.9842H34.6C35.3722 13.9842 36 14.6098 36 15.3842V30H42C43.1043 30 44 30.8957 44 32V34C44 36.2097 42.2089 38 40 38H8C5.79113 38 4 36.2097 4 34V32C4 30.8957 4.89572 30 6 30H8V13C8 11.3432 9.34225 10 11 10H37C38.6577 10 40 11.3432 40 13ZM20.0624 32V33C20.0624 33.552 20.5104 34 21.0624 34H27.0624C27.6144 34 28.0624 33.552 28.0624 33V32H42V34C42 35.1049 41.1045 36 40 36H8C6.89549 36 6 35.1049 6 34V32H8V33C8 33.5523 8.44772 34 9 34C9.55228 34 10 33.5523 10 33V32H20.0624Z" />

		<g id='news'>
			<path d="M27,5V3H1v26   c0,1.105,0.895,2,2,2h26c1.105,0,2-0.895,2-2V5H27z" fill="none" stroke="#FFF" stroke-linejoin="round" stroke-miterlimit="10" stroke-width="2"/>
	
	<rect fill="none" height="8" stroke="#FFF" stroke-linejoin="round" stroke-miterlimit="10" stroke-width="2" width="10" x="5" y="19"/>
	
	<line fill="none" stroke="#FFF" stroke-linejoin="round" stroke-miterlimit="10" stroke-width="2" x1="27" x2="27" y1="5" y2="24"/>
	
	<line fill="none" stroke="#FFF" stroke-linejoin="round" stroke-miterlimit="10" stroke-width="2" x1="27" x2="27" y1="26" y2="28"/>
	
	<line fill="none" stroke="#FFF" stroke-linejoin="round" stroke-miterlimit="10" stroke-width="2" x1="4" x2="24" y1="11" y2="11"/>
	
	<line fill="none" stroke="#FFF" stroke-linejoin="round" stroke-miterlimit="10" stroke-width="2" x1="4" x2="24" y1="7" y2="7"/>
	
	<line fill="none" stroke="#FFF" stroke-linejoin="round" stroke-miterlimit="10" stroke-width="2" x1="4" x2="24" y1="15" y2="15"/>
	
	<line fill="none" stroke="#FFF" stroke-linejoin="round" stroke-miterlimit="10" stroke-width="2" x1="18" x2="24" y1="19" y2="19"/>
	
	<line fill="none" stroke="#FFF" stroke-linejoin="round" stroke-miterlimit="10" stroke-width="2" x1="18" x2="24" y1="23" y2="23"/>
	
	<line fill="none" stroke="#FFF" stroke-linejoin="round" stroke-miterlimit="10" stroke-width="2" x1="18" x2="24" y1="27" y2="27"/>
		</g>

		<g id='gal2'>
			<path fill-rule="evenodd" clip-rule="evenodd" d="M16 6.75C15.3096 6.75 14.75 7.30964 14.75 8C14.75 8.69036 15.3096 9.25 16 9.25C16.6904 9.25 17.25 8.69036 17.25 8C17.25 7.30964 16.6904 6.75 16 6.75ZM13.25 8C13.25 6.48122 14.4812 5.25 16 5.25C17.5188 5.25 18.75 6.48122 18.75 8C18.75 9.51878 17.5188 10.75 16 10.75C14.4812 10.75 13.25 9.51878 13.25 8Z" fill="#FFF"/>
			<path fill-rule="evenodd" clip-rule="evenodd" d="M11.9426 1.25H12.0574C14.3658 1.24999 16.1748 1.24998 17.5863 1.43975C19.031 1.63399 20.1711 2.03933 21.0659 2.93414C21.9607 3.82895 22.366 4.96897 22.5603 6.41371C22.75 7.82519 22.75 9.63423 22.75 11.9426V12.0574C22.75 14.3658 22.75 16.1748 22.5603 17.5863C22.366 19.031 21.9607 20.1711 21.0659 21.0659C20.1711 21.9607 19.031 22.366 17.5863 22.5603C16.1748 22.75 14.3658 22.75 12.0574 22.75H11.9426C9.63423 22.75 7.82519 22.75 6.41371 22.5603C4.96897 22.366 3.82895 21.9607 2.93414 21.0659C2.03933 20.1711 1.63399 19.031 1.43975 17.5863C1.24998 16.1748 1.24999 14.3658 1.25 12.0574V11.9426C1.24999 9.63423 1.24998 7.82519 1.43975 6.41371C1.63399 4.96897 2.03933 3.82895 2.93414 2.93414C3.82895 2.03933 4.96897 1.63399 6.41371 1.43975C7.82519 1.24998 9.63423 1.24999 11.9426 1.25ZM3.9948 20.0052C3.42514 19.4355 3.09825 18.6648 2.92637 17.3864C2.77289 16.2449 2.75296 14.7885 2.75038 12.8401L4.24546 11.5319C4.85958 10.9946 5.78515 11.0254 6.36216 11.6024L10.6519 15.8922C11.5968 16.8371 13.0843 16.9659 14.1776 16.1975L14.4758 15.988C15.334 15.3849 16.4951 15.4547 17.2747 16.1564L20.4983 19.0576C20.5334 19.0892 20.5706 19.1168 20.6095 19.1406C20.4478 19.4815 20.2487 19.7617 20.0052 20.0052C19.4355 20.5749 18.6648 20.9018 17.3864 21.0736C16.0864 21.2484 14.3782 21.25 12 21.25C9.62178 21.25 7.91356 21.2484 6.61358 21.0736C5.33517 20.9018 4.56445 20.5749 3.9948 20.0052ZM6.61358 2.92637C5.33517 3.09825 4.56445 3.42514 3.9948 3.9948C3.42514 4.56445 3.09825 5.33517 2.92637 6.61358C2.78124 7.69307 2.75552 9.05407 2.75098 10.8465L3.25771 10.4031C4.46613 9.34572 6.28741 9.40636 7.42282 10.5418L11.7125 14.8315C12.1421 15.261 12.8182 15.3196 13.3152 14.9703L13.6134 14.7607C15.0437 13.7555 16.9788 13.872 18.2782 15.0415L21.0522 17.5381C21.0596 17.4883 21.0667 17.4378 21.0736 17.3864C21.2484 16.0864 21.25 14.3782 21.25 12C21.25 9.62178 21.2484 7.91356 21.0736 6.61358C20.9018 5.33517 20.5749 4.56445 20.0052 3.9948C19.4355 3.42514 18.6648 3.09825 17.3864 2.92637C16.0864 2.75159 14.3782 2.75 12 2.75C9.62178 2.75 7.91356 2.75159 6.61358 2.92637Z" fill="#FFF"/>
		</g>

			<g id='news2'>
					<defs>

					<style>.g{fill:none;stroke:#FFF;stroke-linecap:round;stroke-linejoin:round;}</style>

				</defs>
				<path id="c" class="g" d="m40.5,5.5H7.5c-1.1046,0-2,.8954-2,2v33c0,1.1046.8954,2,2,2h33c1.1046,0,2-.8954,2-2V7.5c0-1.1046-.8954-2-2-2Z"/>
				<g>
				<path id="d" class="g" d="m20.373,11.5005h16.502v5h-16.502v-5Z"/>
				<path id="e" class="g" d="m20.373,21.5h16.502v5h-16.502v-5Z"/>
				<path id="f" class="g" d="m20.373,31.4995h16.502v5h-16.502v-5Z"/>
				<rect class="g" x="11.125" y="11.5005" width="5" height="5"/>
				<rect class="g" x="11.125" y="21.5" width="5" height="5"/>
				<rect class="g" x="11.125" y="31.4995" width="5" height="5"/>
				</g>
			</g>

	</svg>